HIERARCHY
ROOT Root
{
	OFFSET 0.00000 0.00000 0.00000
	CHANNELS 6 Xposition Yposition Zposition Zrotation Xrotation Yrotation
	JOINT Hip
	{
		OFFSET 0 0 0	
		CHANNELS 3 Zrotation Xrotation Yrotation
		JOINT Tummy
		{
			OFFSET 0 0.04 0	
			CHANNELS 3 Zrotation Xrotation Yrotation
			JOINT ChestBottom
			{
				OFFSET 0 0.194 0	
				CHANNELS 3 Zrotation Xrotation Yrotation
				JOINT ChestTop
				{
					OFFSET 0 0.166 0	
					CHANNELS 3 Zrotation Xrotation Yrotation
					JOINT LeftCollar
					{
						OFFSET 0 0.1 0	
						CHANNELS 3 Zrotation Xrotation Yrotation
						JOINT LeftUpperArm
						{
							OFFSET 0.156 -0.02 0.03	
							CHANNELS 3 Zrotation Xrotation Yrotation
							JOINT LeftForeArm
							{
								OFFSET 0.035 -0.27 -0.01	
								CHANNELS 3 Zrotation Xrotation Yrotation
								JOINT LeftHand
								{
									OFFSET 0.01 -0.27 0.01	
									CHANNELS 3 Zrotation Xrotation Yrotation
									End Site
									{
										OFFSET 0 -0.15 0
									}
								}
							}
						}
					}
					JOINT RightCollar
					{
						OFFSET 0 0.1 0	
						CHANNELS 3 Zrotation Xrotation Yrotation
						JOINT RightUpperArm
						{
							OFFSET -0.156 -0.02 0.03	
							CHANNELS 3 Zrotation Xrotation Yrotation
							JOINT RightForeArm
							{
								OFFSET -0.035 -0.27 -0.01	
								CHANNELS 3 Zrotation Xrotation Yrotation
								JOINT RightHand
								{
									OFFSET -0.01 -0.27 0.01	
									CHANNELS 3 Zrotation Xrotation Yrotation
									End Site
									{
										OFFSET 0 -0.15 0
									}
								}
							}
						}
					}
					JOINT Neck
					{
						OFFSET 0 0.1 0	
						CHANNELS 3 Zrotation Xrotation Yrotation
						JOINT Head
						{
							OFFSET 0 0.127 0.03	
							CHANNELS 3 Zrotation Xrotation Yrotation
							End Site
							{
								OFFSET 0 0.127 0.03
							}
						}
					}
				}
			}
		}
	}
	JOINT LeftHip
	{
		OFFSET 0 0 0	
		CHANNELS 3 Zrotation Xrotation Yrotation
		JOINT LeftThigh
		{
			OFFSET 0.088 -0.06 0	
			CHANNELS 3 Zrotation Xrotation Yrotation
			JOINT LeftLowerLeg
			{
				OFFSET 0 -0.39 0.02	
				CHANNELS 3 Zrotation Xrotation Yrotation
				JOINT LeftFootTop
				{
					OFFSET 0 -0.43 -0.02	
					CHANNELS 3 Zrotation Xrotation Yrotation
					JOINT LeftFootFront
					{
						OFFSET 0 -0.07 0.085	
						CHANNELS 3 Zrotation Xrotation Yrotation
						End Site
						{
							OFFSET 0 -0.005 0.09
						}
					}
				}
				JOINT LeftHeel
				{
					OFFSET 0 -0.43 -0.02	
					CHANNELS 3 Zrotation Xrotation Yrotation
					End Site
					{
						OFFSET 0 -0.075 -0.05
					}
				}
			}
		}
	}
	JOINT RightHip
	{
		OFFSET 0 0 0	
		CHANNELS 3 Zrotation Xrotation Yrotation
		JOINT RightThigh
		{
			OFFSET -0.088 -0.06 0	
			CHANNELS 3 Zrotation Xrotation Yrotation
			JOINT RightLowerLeg
			{
				OFFSET 0 -0.39 0.02	
				CHANNELS 3 Zrotation Xrotation Yrotation
				JOINT RightFootTop
				{
					OFFSET 0 -0.43 -0.02	
					CHANNELS 3 Zrotation Xrotation Yrotation
					JOINT RightFootFront
					{
						OFFSET 0 -0.07 0.085	
						CHANNELS 3 Zrotation Xrotation Yrotation
						End Site
						{
							OFFSET 0 -0.005 0.09
						}
					}
				}
				JOINT RightHeel
				{
					OFFSET 0 -0.43 -0.02	
					CHANNELS 3 Zrotation Xrotation Yrotation
					End Site
					{
						OFFSET 0 -0.075 -0.05
					}
				}
			}
		}
	}
}
MOTION
Frames: 33
Frame Time: 0.05
0 0.955 0 -0 0 -0 -0 0 -0 -0 0 -0 -10.193 5.3914 57.61 -0 0 -0 -0 0 -0 7.9787 -14.07 -7.9488 -60.499 -33.966 19.465 -0 0 -0 -0 0 -0 -27.691 -57.042 -14.895 126.3 -42.279 37.402 -0 0 -0 -2.8629 -8.8596 3.4587 -2.8629 -8.8596 3.4587 -0 0 -0 -0 0 -0 -0 0 -0 -0 0 -0 -0 0 -0 -0 0 -0 -0 0 -0 -0 0 -0 -0 0 -0 -0 0 -0 -0 0 -0 -0 0 -0 
0 0.955 0 -0 0 -0 -0 0 -0 -0 0 -0 -10.195 5.3813 57.62 -0 0 -0 -0 0 -0 7.9557 -14.099 -7.9516 -60.461 -33.948 19.459 -0 0 -0 -0 0 -0 -28.259 -57.632 -15.657 126.41 -42.168 38.25 -0 0 -0 -2.8969 -8.9956 3.4281 -2.8969 -8.9956 3.428 -0 0 -0 -0 0 -0 -0 0 -0 -0 0 -0 -0 0 -0 -0 0 -0 -0 0 -0 -0 0 -0 -0 0 -0 -0 0 -0 -0 0 -0 -0 0 -0 
0 0.955 0 -0 0 -0 -0 0 -0 -0 0 -0 -10.273 5.4029 57.636 -0 0 -0 -0 0 -0 7.9467 -14.208 -7.9425 -60.461 -33.914 19.487 -0 0 -0 -0 0 -0 -28.942 -58.331 -16.567 126.54 -42.083 38.805 -0 0 -0 -2.9291 -9.1824 3.3932 -2.9291 -9.1824 3.3932 -0 0 -0 -0 0 -0 -0 0 -0 -0 0 -0 -0 0 -0 -0 0 -0 -0 0 -0 -0 0 -0 -0 0 -0 -0 0 -0 -0 0 -0 -0 0 -0 
0 0.955 0 -0 0 -0 -0 0 -0 -0 0 -0 -10.353 5.4317 57.628 -0 0 -0 -0 0 -0 7.9467 -14.274 -7.908 -60.481 -33.901 19.497 -0 0 -0 -0 0 -0 -29.627 -59.073 -17.42 126.66 -42.026 39.211 -0 0 -0 -2.9381 -9.3331 3.4106 -2.9381 -9.3331 3.4106 -0 0 -0 -0 0 -0 -0 0 -0 -0 0 -0 -0 0 -0 -0 0 -0 -0 0 -0 -0 0 -0 -0 0 -0 -0 0 -0 -0 0 -0 -0 0 -0 
0 0.955 0 -0 0 -0 -0 0 -0 -0 0 -0 -10.4 5.4466 57.608 -0 0 -0 -0 0 -0 7.954 -14.284 -7.881 -60.459 -33.912 19.492 -0 0 -0 -0 0 -0 -30.214 -59.729 -18.113 126.92 -41.99 39.439 -0 0 -0 -2.9798 -9.4641 3.4426 -2.9798 -9.4641 3.4426 -0 0 -0 -0 0 -0 -0 0 -0 -0 0 -0 -0 0 -0 -0 0 -0 -0 0 -0 -0 0 -0 -0 0 -0 -0 0 -0 -0 0 -0 -0 0 -0 
0 0.955 0 -0 0 -0 -0 0 -0 -0 0 -0 -10.474 5.444 57.615 -0 0 -0 -0 0 -0 7.9837 -14.299 -7.8881 -60.395 -33.892 19.537 -0 0 -0 -0 0 -0 -30.72 -60.307 -18.746 127.21 -41.932 39.836 -0 0 -0 -3.071 -9.6034 3.4385 -3.071 -9.6034 3.4385 -0 0 -0 -0 0 -0 -0 0 -0 -0 0 -0 -0 0 -0 -0 0 -0 -0 0 -0 -0 0 -0 -0 0 -0 -0 0 -0 -0 0 -0 -0 0 -0 
0 0.955 0 -0 0 -0 -0 0 -0 -0 0 -0 -10.467 5.359 57.628 -0 0 -0 -0 0 -0 8.057 -14.223 -7.9404 -60.356 -33.868 19.613 -0 0 -0 -0 0 -0 -30.992 -60.725 -19.131 127.5 -41.906 40.459 -0 0 -0 -3.1742 -9.6952 3.4487 -3.1742 -9.6951 3.4487 -0 0 -0 -0 0 -0 -0 0 -0 -0 0 -0 -0 0 -0 -0 0 -0 -0 0 -0 -0 0 -0 -0 0 -0 -0 0 -0 -0 0 -0 -0 0 -0 
0 0.955 0 -0 0 -0 -0 0 -0 -0 0 -0 -10.411 5.2503 57.667 -0 0 -0 -0 0 -0 8.0773 -14.114 -8.0298 -60.265 -33.856 19.623 -0 0 -0 -0 0 -0 -31.184 -61.055 -19.424 127.67 -41.863 40.969 -0 0 -0 -3.2517 -9.7725 3.4844 -3.2517 -9.7725 3.4844 -0 0 -0 -0 0 -0 -0 0 -0 -0 0 -0 -0 0 -0 -0 0 -0 -0 0 -0 -0 0 -0 -0 0 -0 -0 0 -0 -0 0 -0 -0 0 -0 
0 0.955 0 -0 0 -0 -0 0 -0 -0 0 -0 -10.375 5.2028 57.724 -0 0 -0 -0 0 -0 8.089 -14.049 -8.1645 -60.295 -33.93 19.622 -0 0 -0 -0 0 -0 -31.492 -61.415 -19.828 127.75 -41.796 41.328 -0 0 -0 -3.3264 -9.8536 3.4431 -3.3264 -9.8536 3.4431 -0 0 -0 -0 0 -0 -0 0 -0 -0 0 -0 -0 0 -0 -0 0 -0 -0 0 -0 -0 0 -0 -0 0 -0 -0 0 -0 -0 0 -0 -0 0 -0 
0 0.955 0 -0 0 -0 -0 0 -0 -0 0 -0 -10.362 5.1356 57.8 -0 0 -0 -0 0 -0 8.1083 -14.006 -8.2701 -60.342 -33.951 19.635 -0 0 -0 -0 0 -0 -31.862 -61.778 -20.299 127.74 -41.734 41.736 -0 0 -0 -3.3745 -9.9192 3.3502 -3.3745 -9.9192 3.3502 -0 0 -0 -0 0 -0 -0 0 -0 -0 0 -0 -0 0 -0 -0 0 -0 -0 0 -0 -0 0 -0 -0 0 -0 -0 0 -0 -0 0 -0 -0 0 -0 
0 0.955 0 -0 0 -0 -0 0 -0 -0 0 -0 -10.357 5.0891 57.873 -0 0 -0 -0 0 -0 8.0989 -13.997 -8.3248 -60.367 -33.898 19.677 -0 0 -0 -0 0 -0 -32.332 -62.092 -20.8 127.75 -41.693 42.085 -0 0 -0 -3.4189 -9.9892 3.2585 -3.4189 -9.9892 3.2585 -0 0 -0 -0 0 -0 -0 0 -0 -0 0 -0 -0 0 -0 -0 0 -0 -0 0 -0 -0 0 -0 -0 0 -0 -0 0 -0 -0 0 -0 -0 0 -0 
0 0.955 0 -0 0 -0 -0 0 -0 -0 0 -0 -10.375 4.9981 57.947 -0 0 -0 -0 0 -0 8.1344 -13.984 -8.3981 -60.385 -33.846 19.742 -0 0 -0 -0 0 -0 -32.815 -62.331 -21.34 127.92 -41.49 42.872 -0 0 -0 -3.4418 -10.054 3.1842 -3.4418 -10.054 3.1842 -0 0 -0 -0 0 -0 -0 0 -0 -0 0 -0 -0 0 -0 -0 0 -0 -0 0 -0 -0 0 -0 -0 0 -0 -0 0 -0 -0 0 -0 -0 0 -0 
0 0.955 0 -0 0 -0 -0 0 -0 -0 0 -0 -10.403 4.921 57.992 -0 0 -0 -0 0 -0 8.161 -13.955 -8.4976 -60.298 -33.835 19.817 -0 0 -0 -0 0 -0 -33.235 -62.537 -21.832 127.86 -41.524 42.994 -0 0 -0 -3.4451 -10.086 3.1691 -3.4451 -10.086 3.1691 -0 0 -0 -0 0 -0 -0 0 -0 -0 0 -0 -0 0 -0 -0 0 -0 -0 0 -0 -0 0 -0 -0 0 -0 -0 0 -0 -0 0 -0 -0 0 -0 
0 0.955 0 -0 0 -0 -0 0 -0 -0 0 -0 -10.493 4.8729 58.048 -0 0 -0 -0 0 -0 8.2004 -13.952 -8.6191 -60.217 -33.885 19.837 -0 0 -0 -0 0 -0 -33.725 -62.716 -22.358 127.86 -41.614 42.926 -0 0 -0 -3.4527 -10.142 3.1383 -3.4527 -10.142 3.1383 -0 0 -0 -0 0 -0 -0 0 -0 -0 0 -0 -0 0 -0 -0 0 -0 -0 0 -0 -0 0 -0 -0 0 -0 -0 0 -0 -0 0 -0 -0 0 -0 
0 0.955 0 -0 0 -0 -0 0 -0 -0 0 -0 -10.566 4.8023 58.065 -0 0 -0 -0 0 -0 8.2711 -13.918 -8.6984 -60.248 -33.894 19.95 -0 0 -0 -0 0 -0 -34.038 -62.81 -22.722 127.87 -41.751 42.965 -0 0 -0 -3.4401 -10.175 3.0942 -3.4401 -10.175 3.0942 -0 0 -0 -0 0 -0 -0 0 -0 -0 0 -0 -0 0 -0 -0 0 -0 -0 0 -0 -0 0 -0 -0 0 -0 -0 0 -0 -0 0 -0 -0 0 -0 
0 0.955 0 -0 0 -0 -0 0 -0 -0 0 -0 -10.588 4.7392 58.065 -0 0 -0 -0 0 -0 8.3127 -13.845 -8.787 -60.239 -33.896 20.071 -0 0 -0 -0 0 -0 -34.244 -62.797 -22.811 127.9 -41.974 42.851 -0 0 -0 -3.4467 -10.167 3.0326 -3.4467 -10.167 3.0326 -0 0 -0 -0 0 -0 -0 0 -0 -0 0 -0 -0 0 -0 -0 0 -0 -0 0 -0 -0 0 -0 -0 0 -0 -0 0 -0 -0 0 -0 -0 0 -0 
0 0.955 0 -0 0 -0 -0 0 -0 -0 0 -0 -10.628 4.6913 58.103 -0 0 -0 -0 0 -0 8.3676 -13.794 -8.9053 -60.222 -33.958 20.093 -0 0 -0 -0 0 -0 -34.155 -62.678 -22.698 127.92 -42.244 42.838 -0 0 -0 -3.4688 -10.179 2.969 -3.4688 -10.179 2.969 -0 0 -0 -0 0 -0 -0 0 -0 -0 0 -0 -0 0 -0 -0 0 -0 -0 0 -0 -0 0 -0 -0 0 -0 -0 0 -0 -0 0 -0 -0 0 -0 
0 0.955 0 -0 0 -0 -0 0 -0 -0 0 -0 -10.609 4.641 58.141 -0 0 -0 -0 0 -0 8.3688 -13.684 -9.0278 -60.2 -33.997 20.154 -0 0 -0 -0 0 -0 -33.68 -62.386 -22.159 127.94 -42.649 42.914 -0 0 -0 -3.5029 -10.16 2.9414 -3.5029 -10.16 2.9414 -0 0 -0 -0 0 -0 -0 0 -0 -0 0 -0 -0 0 -0 -0 0 -0 -0 0 -0 -0 0 -0 -0 0 -0 -0 0 -0 -0 0 -0 -0 0 -0 
0 0.955 0 -0 0 -0 -0 0 -0 -0 0 -0 -10.583 4.5796 58.201 -0 0 -0 -0 0 -0 8.3437 -13.565 -9.1246 -60.238 -34.054 20.089 -0 0 -0 -0 0 -0 -32.883 -61.875 -21.253 127.87 -43.05 42.848 -0 0 -0 -3.5322 -10.109 2.9376 -3.5322 -10.109 2.9376 -0 0 -0 -0 0 -0 -0 0 -0 -0 0 -0 -0 0 -0 -0 0 -0 -0 0 -0 -0 0 -0 -0 0 -0 -0 0 -0 -0 0 -0 -0 0 -0 
0 0.955 0 -0 0 -0 -0 0 -0 -0 0 -0 -10.617 4.5612 58.326 -0 0 -0 -0 0 -0 8.299 -13.545 -9.2387 -60.232 -34.068 20.017 -0 0 -0 -0 0 -0 -31.94 -61.203 -20.224 127.81 -43.517 42.759 -0 0 -0 -3.6012 -10.057 2.875 -3.6011 -10.057 2.875 -0 0 -0 -0 0 -0 -0 0 -0 -0 0 -0 -0 0 -0 -0 0 -0 -0 0 -0 -0 0 -0 -0 0 -0 -0 0 -0 -0 0 -0 -0 0 -0 
0 0.955 0 -0 0 -0 -0 0 -0 -0 0 -0 -10.607 4.5431 58.444 -0 0 -0 -0 0 -0 8.2555 -13.501 -9.3863 -60.242 -34.084 19.991 -0 0 -0 -0 0 -0 -30.844 -60.396 -19.05 127.73 -44.088 42.662 -0 0 -0 -3.649 -9.9421 2.8334 -3.649 -9.9421 2.8333 -0 0 -0 -0 0 -0 -0 0 -0 -0 0 -0 -0 0 -0 -0 0 -0 -0 0 -0 -0 0 -0 -0 0 -0 -0 0 -0 -0 0 -0 -0 0 -0 
0 0.955 0 -0 0 -0 -0 0 -0 -0 0 -0 -10.544 4.5156 58.537 -0 0 -0 -0 0 -0 8.209 -13.413 -9.5705 -60.2 -34.09 20.088 -0 0 -0 -0 0 -0 -29.628 -59.432 -17.756 127.58 -44.679 41.989 -0 0 -0 -3.6859 -9.7703 2.8344 -3.6859 -9.7703 2.8344 -0 0 -0 -0 0 -0 -0 0 -0 -0 0 -0 -0 0 -0 -0 0 -0 -0 0 -0 -0 0 -0 -0 0 -0 -0 0 -0 -0 0 -0 -0 0 -0 
0 0.955 0 -0 0 -0 -0 0 -0 -0 0 -0 -10.469 4.4541 58.629 -0 0 -0 -0 0 -0 8.1868 -13.282 -9.7503 -60.232 -34.144 20.145 -0 0 -0 -0 0 -0 -28.357 -58.307 -16.497 127.42 -45.204 41.142 -0 0 -0 -3.6764 -9.5462 2.856 -3.6764 -9.5462 2.856 -0 0 -0 -0 0 -0 -0 0 -0 -0 0 -0 -0 0 -0 -0 0 -0 -0 0 -0 -0 0 -0 -0 0 -0 -0 0 -0 -0 0 -0 -0 0 -0 
0 0.955 0 -0 0 -0 -0 0 -0 -0 0 -0 -10.423 4.4203 58.684 -0 0 -0 -0 0 -0 8.1925 -13.171 -9.8198 -60.303 -34.168 20.147 -0 0 -0 -0 0 -0 -27.083 -57.128 -15.204 127.08 -45.493 39.442 -0 0 -0 -3.6517 -9.3165 2.8562 -3.6517 -9.3165 2.8562 -0 0 -0 -0 0 -0 -0 0 -0 -0 0 -0 -0 0 -0 -0 0 -0 -0 0 -0 -0 0 -0 -0 0 -0 -0 0 -0 -0 0 -0 -0 0 -0 
0 0.955 0 -0 0 -0 -0 0 -0 -0 0 -0 -10.479 4.5189 58.693 -0 0 -0 -0 0 -0 8.1157 -13.227 -9.7971 -60.421 -34.215 20.061 -0 0 -0 -0 0 -0 -25.963 -55.931 -13.841 126.72 -45.901 37.28 -0 0 -0 -3.6074 -9.1354 2.8588 -3.6074 -9.1354 2.8588 -0 0 -0 -0 0 -0 -0 0 -0 -0 0 -0 -0 0 -0 -0 0 -0 -0 0 -0 -0 0 -0 -0 0 -0 -0 0 -0 -0 0 -0 -0 0 -0 
0 0.955 0 -0 0 -0 -0 0 -0 -0 0 -0 -10.566 4.6202 58.71 -0 0 -0 -0 0 -0 8.0524 -13.328 -9.7994 -60.504 -34.291 19.99 -0 0 -0 -0 0 -0 -24.845 -54.55 -12.619 126.18 -46.387 34.979 -0 0 -0 -3.547 -8.9018 2.8077 -3.547 -8.9018 2.8077 -0 0 -0 -0 0 -0 -0 0 -0 -0 0 -0 -0 0 -0 -0 0 -0 -0 0 -0 -0 0 -0 -0 0 -0 -0 0 -0 -0 0 -0 -0 0 -0 
0 0.955 0 -0 0 -0 -0 0 -0 -0 0 -0 -10.681 4.7007 58.748 -0 0 -0 -0 0 -0 8.0096 -13.443 -9.7937 -60.577 -34.317 19.953 -0 0 -0 -0 0 -0 -23.663 -52.932 -11.404 125.68 -47.061 33.227 -0 0 -0 -3.4841 -8.5976 2.6816 -3.4841 -8.5976 2.6816 -0 0 -0 -0 0 -0 -0 0 -0 -0 0 -0 -0 0 -0 -0 0 -0 -0 0 -0 -0 0 -0 -0 0 -0 -0 0 -0 -0 0 -0 -0 0 -0 
0 0.955 0 -0 0 -0 -0 0 -0 -0 0 -0 -10.809 4.7373 58.791 -0 0 -0 -0 0 -0 8.0173 -13.581 -9.7875 -60.584 -34.257 19.997 -0 0 -0 -0 0 -0 -22.303 -50.978 -10.168 125.07 -47.713 31.232 -0 0 -0 -3.395 -8.2789 2.577 -3.395 -8.2789 2.577 -0 0 -0 -0 0 -0 -0 0 -0 -0 0 -0 -0 0 -0 -0 0 -0 -0 0 -0 -0 0 -0 -0 0 -0 -0 0 -0 -0 0 -0 -0 0 -0 
0 0.955 0 -0 0 -0 -0 0 -0 -0 0 -0 -10.878 4.8484 58.786 -0 0 -0 -0 0 -0 7.9756 -13.714 -9.7806 -60.531 -34.251 20.01 -0 0 -0 -0 0 -0 -20.964 -48.905 -8.9566 124.32 -48.472 29.527 -0 0 -0 -3.3764 -8.0371 2.5243 -3.3764 -8.0371 2.5243 -0 0 -0 -0 0 -0 -0 0 -0 -0 0 -0 -0 0 -0 -0 0 -0 -0 0 -0 -0 0 -0 -0 0 -0 -0 0 -0 -0 0 -0 -0 0 -0 
0 0.955 0 -0 0 -0 -0 0 -0 -0 0 -0 -10.997 5.0502 58.825 -0 0 -0 -0 0 -0 7.8927 -13.938 -9.8004 -60.516 -34.296 19.953 -0 0 -0 -0 0 -0 -19.904 -46.747 -7.9594 123.71 -49.341 28.375 -0 0 -0 -3.4306 -7.9225 2.4166 -3.4306 -7.9225 2.4166 -0 0 -0 -0 0 -0 -0 0 -0 -0 0 -0 -0 0 -0 -0 0 -0 -0 0 -0 -0 0 -0 -0 0 -0 -0 0 -0 -0 0 -0 -0 0 -0 
0 0.955 0 -0 0 -0 -0 0 -0 -0 0 -0 -11.045 5.134 58.875 -0 0 -0 -0 0 -0 7.8647 -14.057 -9.7696 -60.554 -34.278 19.853 -0 0 -0 -0 0 -0 -18.834 -44.451 -7.1353 123.05 -50.303 27.764 -0 0 -0 -3.4643 -7.8037 2.2942 -3.4643 -7.8037 2.2942 -0 0 -0 -0 0 -0 -0 0 -0 -0 0 -0 -0 0 -0 -0 0 -0 -0 0 -0 -0 0 -0 -0 0 -0 -0 0 -0 -0 0 -0 -0 0 -0 
0 0.955 0 -0 0 -0 -0 0 -0 -0 0 -0 -11.068 5.1773 58.932 -0 0 -0 -0 0 -0 7.8347 -14.168 -9.7068 -60.626 -34.191 19.792 -0 0 -0 -0 0 -0 -17.903 -42.085 -6.301 122.69 -51.354 27.536 -0 0 -0 -3.4661 -7.7244 2.2177 -3.4661 -7.7244 2.2177 -0 0 -0 -0 0 -0 -0 0 -0 -0 0 -0 -0 0 -0 -0 0 -0 -0 0 -0 -0 0 -0 -0 0 -0 -0 0 -0 -0 0 -0 -0 0 -0 
0 0.955 0 -0 0 -0 -0 0 -0 -0 0 -0 -11.104 5.1582 58.978 -0 0 -0 -0 0 -0 7.8652 -14.268 -9.6842 -60.64 -34.134 19.787 -0 0 -0 -0 0 -0 -16.955 -39.657 -5.4642 122.64 -52.471 27.768 -0 0 -0 -3.4187 -7.6808 2.1858 -3.4187 -7.6808 2.1858 -0 0 -0 -0 0 -0 -0 0 -0 -0 0 -0 -0 0 -0 -0 0 -0 -0 0 -0 -0 0 -0 -0 0 -0 -0 0 -0 -0 0 -0 -0 0 -0 
